#!OML:ASF E:\Style4\Style4.ASF
:FULLY-SPECIFIED
:DEGREES
2491
root -0.340134 17.2367 -2.33126 7.95932 -11.9898 -1.52204
lowerback 17.8912 -1.96249 -6.91567
upperback 9.36989 -3.75316 -4.14623
thorax 0.228636 -2.04136 0.148983
lowerneck -1.31409 5.80782 -2.42073
upperneck -5.68599 8.2133 8.10741
head -2.07571 4.02074 2.90356
rclavicle 1.90833e-014 -2.54444e-014
rhumerus 53.1991 -3.39182 2.35039
rradius 66.882
rwrist -83.6033
rhand 1.3945 8.94039
rfingers 7.12502
rthumb 26.9254 -19.1615
lclavicle 1.90833e-014 -2.54444e-014
lhumerus 63.6423 -18.6302 48.3365
lradius 77.3198
lwrist 79.0561
lhand -4.60582 27.1054
lfingers 7.12502
lthumb 21.1721 55.9693
rfemur -35.5421 2.41963 22.5042
rtibia 44.0909
rfoot -16.656 -6.31069
rtoes -13.7107
lfemur -34.099 9.52149 -15.5094
ltibia 47.6181
lfoot -20.8848 11.2254
ltoes -12.3205
2492
root -0.368678 17.2337 -2.33671 7.90919 -11.6441 -1.51372
lowerback 17.9339 -1.82675 -6.66667
upperback 9.42725 -3.54129 -4.27573
thorax 0.23088 -1.92453 -0.15986
lowerneck -1.57924 5.52037 -2.30254
upperneck -5.65628 7.83282 8.29725
head -1.99996 3.83192 2.96396
rclavicle -1.90833e-014 -1.59028e-015
rhumerus 53.1213 -3.48534 2.35008
rradius 66.6599
rwrist -83.484
rhand 1.65321 8.96855
rfingers 7.12502
rthumb 27.1729 -19.0949
lclavicle -1.90833e-014 -1.59028e-015
lhumerus 63.8439 -18.6652 48.1894
lradius 77.4397
lwrist 79.2833
lhand -4.93243 27.0778
lfingers 7.12502
lthumb 20.8583 55.9765
rfemur -35.5119 2.33921 22.5946
rtibia 44.1933
rfoot -16.7217 -6.54384
rtoes -13.636
lfemur -34.1088 9.42161 -15.4069
ltibia 47.5746
lfoot -20.6577 10.9675
ltoes -11.8515
2493
root -0.396035 17.2316 -2.34306 7.87597 -11.2704 -1.51686
lowerback 17.9444 -1.76034 -6.52959
upperback 9.42528 -3.43368 -4.29382
thorax 0.207571 -1.86419 -0.271858
lowerneck -1.53721 5.33155 -2.40765
upperneck -5.69545 7.58918 8.45076
head -2.01836 3.70819 3.03984
rclavicle -3.33958e-014 9.54166e-015
rhumerus 53.3889 -3.5117 2.35292
rradius 66.4728
rwrist -83.2888
rhand 1.89574 8.87566
rfingers 7.12502
rthumb 27.4049 -19.1513
lclavicle -3.33958e-014 9.54166e-015
lhumerus 63.6966 -18.5153 48.1603
lradius 77.5336
lwrist 79.4104
lhand -5.25173 27.0035
lfingers 7.12502
lthumb 20.5515 55.9356
rfemur -35.4854 2.23845 22.6974
rtibia 44.2887
rfoot -16.7831 -6.80765
rtoes -13.6169
lfemur -34.1476 9.27753 -15.2955
ltibia 47.5449
lfoot -20.5079 10.7919
ltoes -11.9027
2494
root -0.422962 17.2274 -2.35116 7.84674 -10.9002 -1.5262
lowerback 17.9726 -1.6994 -6.43586
upperback 9.40249 -3.34218 -4.29603
thorax 0.157991 -1.81274 -0.339168
lowerneck -1.39711 5.16513 -2.41132
upperneck -5.75027 7.37247 8.52974
head -2.05202 3.59416 3.06865
rclavicle -4.77083e-015 -2.70347e-014
rhumerus 53.7598 -3.46645 2.33576
rradius 66.2605
rwrist -83.1221
rhand 2.18888 8.99051
rfingers 7.12502
rthumb 27.6852 -18.9918
lclavicle -4.77083e-015 -2.70347e-014
lhumerus 63.4799 -18.374 47.9405
lradius 77.6956
lwrist 79.4744
lhand -5.53019 26.8865
lfingers 7.12502
lthumb 20.2839 55.8473
rfemur -35.4795 2.16245 22.8062
rtibia 44.3813
rfoot -16.8249 -7.06069
rtoes -13.6781
lfemur -34.2101 9.12188 -15.1695
ltibia 47.532
lfoot -20.4208 10.6522
ltoes -12.0873
2495
root -0.449937 17.2234 -2.35784 7.84122 -10.5605 -1.53874
lowerback 17.9549 -1.61846 -6.39026
upperback 9.37994 -3.22695 -4.26107
thorax 0.137324 -1.7529 -0.346576
lowerneck -1.21915 4.97337 -2.40051
upperneck -5.87075 7.12234 8.53801
head -2.10768 3.46195 3.07055
rclavicle 4.77083e-014 9.54166e-015
rhumerus 54.1284 -3.40095 2.26144
rradius 66.1181
rwrist -82.9707
rhand 2.37631 9.11567
rfingers 7.12502
rthumb 27.8644 -18.8377
lclavicle 4.77083e-014 9.54166e-015
lhumerus 63.295 -18.1887 47.6956
lradius 77.7806
lwrist 79.4975
lhand -5.78646 26.8416
lfingers 7.12502
lthumb 20.0376 55.8284
rfemur -35.5066 2.13059 22.9064
rtibia 44.4822
rfoot -16.8798 -7.28969
rtoes -13.3469
lfemur -34.3012 9.11854 -15.07
ltibia 47.5146
lfoot -20.2178 10.4789
ltoes -12.7455
2496
root -0.477968 17.2198 -2.36428 7.83416 -10.2046 -1.47254
lowerback 17.8884 -1.50242 -6.36935
upperback 9.41989 -3.06189 -4.25438
thorax 0.207748 -1.67158 -0.382505
lowerneck -1.22559 4.73149 -2.43766
upperneck -6.01145 6.8087 8.59408
head -2.13739 3.30234 3.10412
rclavicle 6.36111e-014 -2.38542e-014
rhumerus 54.2945 -3.39801 2.16326
rradius 66.0507
rwrist -82.7498
rhand 2.4397 9.16422
rfingers 7.12502
rthumb 27.925 -18.7793
lclavicle 6.36111e-014 -2.38542e-014
lhumerus 63.2333 -18.016 47.4491
lradius 77.7095
lwrist 79.3141
lhand -5.80761 26.7981
lfingers 7.12502
lthumb 20.0173 55.7871
rfemur -35.5536 2.03059 22.9301
rtibia 44.6062
rfoot -16.9861 -7.44767
rtoes -13.0302
lfemur -34.4112 9.15312 -15.0689
ltibia 47.4965
lfoot -19.9642 10.307
ltoes -13.5761
2497
root -0.503248 17.2155 -2.37035 7.76418 -9.82477 -1.3291
lowerback 17.9003 -1.31232 -6.2269
upperback 9.53982 -2.7875 -4.36966
thorax 0.306951 -1.53025 -0.632584
lowerneck -1.56416 4.39531 -2.19538
upperneck -6.00538 6.35544 8.6391
head -2.03778 3.07808 3.0926
rclavicle -1.74931e-014 7.95139e-015
rhumerus 54.0856 -3.47196 2.04449
rradius 65.9751
rwrist -82.5404
rhand 2.25006 9.2704
rfingers 7.12502
rthumb 27.7437 -18.7025
lclavicle -1.74931e-014 7.95139e-015
lhumerus 63.5062 -18.0228 46.9978
lradius 77.557
lwrist 79.0815
lhand -5.74656 26.7066
lfingers 7.12502
lthumb 20.076 55.6894
rfemur -35.5756 1.87939 22.8775
rtibia 44.7733
rfoot -17.0652 -7.7944
rtoes -14.0965
lfemur -34.455 9.04536 -15.1338
ltibia 47.4864
lfoot -19.857 10.1197
ltoes -13.6894
